# xmcd CD database file
#
# Track frame offsets:
#	150
#	14949
#	31428
#	44946
#	60700
#	77999
#	96199
#	107289
#	126197
#	145300
#	159242
#	177225
#
# Disc length: 2585 seconds
#
# Revision: 0
# Processed by: cddbd v1.5.2PL0 Copyright (c) Steve Scherf et al.
# Submitted via: CDex 1.51
#
DISCID=a80a170c
DTITLE=Anton Gälle und seine Scherzachtaler Blasmusik - Zeit für uns
DYEAR=2014
DGENRE=Country
TTITLE0=Panorama-Marsch
TTITLE1=Musikantenfrauen
TTITLE2=Hubavenka-Polka
TTITLE3=Anton Gälle und seine Scherzachtaler Blasmusik - Hanna Rosa
TTITLE4=Fernweh-Polka
TTITLE5=Alia Amare
TTITLE6=Balkany Tabasc - Solist: Stefan Baier
TTITLE7=Zeit für uns
TTITLE8=Gabriella's Song - Solist: Berthold Kiechle
TTITLE9=Böhmische Kameraden
TTITLE10=Aus Freude zur Musik
TTITLE11=Sommernachtsfest
EXTD=YEAR: 2014
EXTT0=
EXTT1=
EXTT2=
EXTT3=
EXTT4=
EXTT5=
EXTT6=
EXTT7=
EXTT8=
EXTT9=
EXTT10=
EXTT11=
PLAYORDER=
